<svg id="visual" viewBox="0 0 1300 700" width="1300" height="700" xmlns="http://www.w3.org/2000/svg" xmlns:xlink="http://www.w3.org/1999/xlink" version="1.1"><rect x="0" y="0" width="1300" height="700" fill="#ebebeb"></rect><path d="M0 158L31 170.7C62 183.3 124 208.7 185.8 208.5C247.7 208.3 309.3 182.7 371.2 183.7C433 184.7 495 212.3 557 217.5C619 222.7 681 205.3 743 207C805 208.7 867 229.3 928.8 234.7C990.7 240 1052.3 230 1114.2 212.8C1176 195.7 1238 171.3 1269 159.2L1300 147L1300 0L1269 0C1238 0 1176 0 1114.2 0C1052.3 0 990.7 0 928.8 0C867 0 805 0 743 0C681 0 619 0 557 0C495 0 433 0 371.2 0C309.3 0 247.7 0 185.8 0C124 0 62 0 31 0L0 0Z" fill="#2F3C7E" stroke-linecap="round" stroke-linejoin="miter"></path></svg>