<svg id="visual" viewBox="0 0 1300 450" width="1300" height="450" xmlns="http://www.w3.org/2000/svg" xmlns:xlink="http://www.w3.org/1999/xlink" version="1.1"><rect x="0" y="0" width="1300" height="450" fill="#ebebeb"></rect><path d="M0 208L36.2 194.7C72.3 181.3 144.7 154.7 216.8 141.2C289 127.7 361 127.3 433.2 143.7C505.3 160 577.7 193 650 212.7C722.3 232.3 794.7 238.7 866.8 222.3C939 206 1011 167 1083.2 167.5C1155.3 168 1227.7 208 1263.8 228L1300 248L1300 0L1263.8 0C1227.7 0 1155.3 0 1083.2 0C1011 0 939 0 866.8 0C794.7 0 722.3 0 650 0C577.7 0 505.3 0 433.2 0C361 0 289 0 216.8 0C144.7 0 72.3 0 36.2 0L0 0Z" fill="#2F3C7E" stroke-linecap="round" stroke-linejoin="miter"></path></svg>