<svg id="visual" viewBox="0 0 1300 700" width="1300" height="700" xmlns="http://www.w3.org/2000/svg" xmlns:xlink="http://www.w3.org/1999/xlink" version="1.1"><rect x="0" y="0" width="1300" height="700" fill="#ebebeb"></rect><path d="M0 187L31 199.3C62 211.7 124 236.3 185.8 231.2C247.7 226 309.3 191 371.2 186.8C433 182.7 495 209.3 557 208.8C619 208.3 681 180.7 743 180.7C805 180.7 867 208.3 928.8 213.3C990.7 218.3 1052.3 200.7 1114.2 198C1176 195.3 1238 207.7 1269 213.8L1300 220L1300 0L1269 0C1238 0 1176 0 1114.2 0C1052.3 0 990.7 0 928.8 0C867 0 805 0 743 0C681 0 619 0 557 0C495 0 433 0 371.2 0C309.3 0 247.7 0 185.8 0C124 0 62 0 31 0L0 0Z" fill="#2F3C7E" stroke-linecap="round" stroke-linejoin="miter"></path></svg>