<svg id="visual" viewBox="0 0 1300 450" width="1300" height="450" xmlns="http://www.w3.org/2000/svg" xmlns:xlink="http://www.w3.org/1999/xlink" version="1.1"><rect x="0" y="0" width="1300" height="450" fill="#ebebeb"></rect><path d="M0 149L36.2 159.3C72.3 169.7 144.7 190.3 216.8 187.3C289 184.3 361 157.7 433.2 158.8C505.3 160 577.7 189 650 199.8C722.3 210.7 794.7 203.3 866.8 206.7C939 210 1011 224 1083.2 217.5C1155.3 211 1227.7 184 1263.8 170.5L1300 157L1300 0L1263.8 0C1227.7 0 1155.3 0 1083.2 0C1011 0 939 0 866.8 0C794.7 0 722.3 0 650 0C577.7 0 505.3 0 433.2 0C361 0 289 0 216.8 0C144.7 0 72.3 0 36.2 0L0 0Z" fill="#2F3C7E" stroke-linecap="round" stroke-linejoin="miter"></path></svg>