<svg id="visual" viewBox="0 0 1300 450" width="1300" height="450" xmlns="http://www.w3.org/2000/svg" xmlns:xlink="http://www.w3.org/1999/xlink" version="1.1"><rect x="0" y="0" width="1300" height="450" fill="#ebebeb"></rect><path d="M0 130L36.2 139.2C72.3 148.3 144.7 166.7 216.8 164.2C289 161.7 361 138.3 433.2 139.3C505.3 140.3 577.7 165.7 650 175.2C722.3 184.7 794.7 178.3 866.8 181.2C939 184 1011 196 1083.2 190.2C1155.3 184.3 1227.7 160.7 1263.8 148.8L1300 137L1300 0L1263.8 0C1227.7 0 1155.3 0 1083.2 0C1011 0 939 0 866.8 0C794.7 0 722.3 0 650 0C577.7 0 505.3 0 433.2 0C361 0 289 0 216.8 0C144.7 0 72.3 0 36.2 0L0 0Z" fill="#2F3C7E" stroke-linecap="round" stroke-linejoin="miter"></path></svg>