<svg id="visual" viewBox="0 0 1300 700" width="1300" height="700" xmlns="http://www.w3.org/2000/svg" xmlns:xlink="http://www.w3.org/1999/xlink" version="1.1"><rect x="0" y="0" width="1300" height="700" fill="#ebebeb"></rect><path d="M0 195L36.2 194.3C72.3 193.7 144.7 192.3 216.8 183.8C289 175.3 361 159.7 433.2 175.2C505.3 190.7 577.7 237.3 650 246.8C722.3 256.3 794.7 228.7 866.8 212.7C939 196.7 1011 192.3 1083.2 202.3C1155.3 212.3 1227.7 236.7 1263.8 248.8L1300 261L1300 0L1263.8 0C1227.7 0 1155.3 0 1083.2 0C1011 0 939 0 866.8 0C794.7 0 722.3 0 650 0C577.7 0 505.3 0 433.2 0C361 0 289 0 216.8 0C144.7 0 72.3 0 36.2 0L0 0Z" fill="#2F3C7E" stroke-linecap="round" stroke-linejoin="miter"></path></svg>