<svg id="visual" viewBox="0 0 1300 700" width="1300" height="700" xmlns="http://www.w3.org/2000/svg" xmlns:xlink="http://www.w3.org/1999/xlink" version="1.1"><rect x="0" y="0" width="1300" height="700" fill="#ebebeb"></rect><path d="M0 218L31 232.5C62 247 124 276 185.8 270C247.7 264 309.3 223 371.2 218.2C433 213.3 495 244.7 557 244.2C619 243.7 681 211.3 743 211.3C805 211.3 867 243.7 928.8 249.5C990.7 255.3 1052.3 234.7 1114.2 231.5C1176 228.3 1238 242.7 1269 249.8L1300 257L1300 0L1269 0C1238 0 1176 0 1114.2 0C1052.3 0 990.7 0 928.8 0C867 0 805 0 743 0C681 0 619 0 557 0C495 0 433 0 371.2 0C309.3 0 247.7 0 185.8 0C124 0 62 0 31 0L0 0Z" fill="#2F3C7E" stroke-linecap="round" stroke-linejoin="miter"></path></svg>