<svg id="visual" viewBox="0 0 1300 700" width="1300" height="700" xmlns="http://www.w3.org/2000/svg" xmlns:xlink="http://www.w3.org/1999/xlink" version="1.1"><rect x="0" y="0" width="1300" height="700" fill="#ebebeb"></rect><path d="M0 249L31 265.5C62 282 124 315 185.8 308.2C247.7 301.3 309.3 254.7 371.2 249.2C433 243.7 495 279.3 557 278.8C619 278.3 681 241.7 743 241.8C805 242 867 279 928.8 285.7C990.7 292.3 1052.3 268.7 1114.2 265C1176 261.3 1238 277.7 1269 285.8L1300 294L1300 0L1269 0C1238 0 1176 0 1114.2 0C1052.3 0 990.7 0 928.8 0C867 0 805 0 743 0C681 0 619 0 557 0C495 0 433 0 371.2 0C309.3 0 247.7 0 185.8 0C124 0 62 0 31 0L0 0Z" fill="#2F3C7E" stroke-linecap="round" stroke-linejoin="miter"></path></svg>