<svg id="visual" viewBox="0 0 1300 450" width="1300" height="450" xmlns="http://www.w3.org/2000/svg" xmlns:xlink="http://www.w3.org/1999/xlink" version="1.1"><rect x="0" y="0" width="1300" height="450" fill="#ebebeb"></rect><path d="M0 261L36.2 244.2C72.3 227.3 144.7 193.7 216.8 176.5C289 159.3 361 158.7 433.2 179.2C505.3 199.7 577.7 241.3 650 266.2C722.3 291 794.7 299 866.8 278.5C939 258 1011 209 1083.2 209.5C1155.3 210 1227.7 260 1263.8 285L1300 310L1300 0L1263.8 0C1227.7 0 1155.3 0 1083.2 0C1011 0 939 0 866.8 0C794.7 0 722.3 0 650 0C577.7 0 505.3 0 433.2 0C361 0 289 0 216.8 0C144.7 0 72.3 0 36.2 0L0 0Z" fill="#2F3C7E" stroke-linecap="round" stroke-linejoin="miter"></path></svg>