<svg id="visual" viewBox="0 0 1300 450" width="1300" height="450" xmlns="http://www.w3.org/2000/svg" xmlns:xlink="http://www.w3.org/1999/xlink" version="1.1"><rect x="0" y="0" width="1300" height="450" fill="#ebebeb"></rect><path d="M0 78L36.2 72.8C72.3 67.7 144.7 57.3 216.8 52.2C289 47 361 47 433.2 53.2C505.3 59.3 577.7 71.7 650 79C722.3 86.3 794.7 88.7 866.8 82.5C939 76.3 1011 61.7 1083.2 61.8C1155.3 62 1227.7 77 1263.8 84.5L1300 92L1300 0L1263.8 0C1227.7 0 1155.3 0 1083.2 0C1011 0 939 0 866.8 0C794.7 0 722.3 0 650 0C577.7 0 505.3 0 433.2 0C361 0 289 0 216.8 0C144.7 0 72.3 0 36.2 0L0 0Z" fill="#2F3C7E" stroke-linecap="round" stroke-linejoin="miter"></path></svg>