<svg id="visual" viewBox="0 0 1300 450" width="1300" height="450" xmlns="http://www.w3.org/2000/svg" xmlns:xlink="http://www.w3.org/1999/xlink" version="1.1"><rect x="0" y="0" width="1300" height="450" fill="#ebebeb"></rect><path d="M0 168L36.2 179.7C72.3 191.3 144.7 214.7 216.8 211.3C289 208 361 178 433.2 179.2C505.3 180.3 577.7 212.7 650 224.8C722.3 237 794.7 229 866.8 232.8C939 236.7 1011 252.3 1083.2 245C1155.3 237.7 1227.7 207.3 1263.8 192.2L1300 177L1300 0L1263.8 0C1227.7 0 1155.3 0 1083.2 0C1011 0 939 0 866.8 0C794.7 0 722.3 0 650 0C577.7 0 505.3 0 433.2 0C361 0 289 0 216.8 0C144.7 0 72.3 0 36.2 0L0 0Z" fill="#2F3C7E" stroke-linecap="round" stroke-linejoin="miter"></path></svg>