<svg id="visual" viewBox="0 0 1300 700" width="1300" height="700" xmlns="http://www.w3.org/2000/svg" xmlns:xlink="http://www.w3.org/1999/xlink" version="1.1"><rect x="0" y="0" width="1300" height="700" fill="#ebebeb"></rect><path d="M0 162L36.2 161.5C72.3 161 144.7 160 216.8 153C289 146 361 133 433.2 145.8C505.3 158.7 577.7 197.3 650 205.2C722.3 213 794.7 190 866.8 176.8C939 163.7 1011 160.3 1083.2 168.7C1155.3 177 1227.7 197 1263.8 207L1300 217L1300 0L1263.8 0C1227.7 0 1155.3 0 1083.2 0C1011 0 939 0 866.8 0C794.7 0 722.3 0 650 0C577.7 0 505.3 0 433.2 0C361 0 289 0 216.8 0C144.7 0 72.3 0 36.2 0L0 0Z" fill="#2F3C7E" stroke-linecap="round" stroke-linejoin="miter"></path></svg>