<svg id="visual" viewBox="0 0 1300 450" width="1300" height="450" xmlns="http://www.w3.org/2000/svg" xmlns:xlink="http://www.w3.org/1999/xlink" version="1.1"><rect x="0" y="0" width="1300" height="450" fill="#ebebeb"></rect><path d="M0 156L36.2 146C72.3 136 144.7 116 216.8 105.8C289 95.7 361 95.3 433.2 107.5C505.3 119.7 577.7 144.3 650 159.2C722.3 174 794.7 179 866.8 166.8C939 154.7 1011 125.3 1083.2 125.7C1155.3 126 1227.7 156 1263.8 171L1300 186L1300 0L1263.8 0C1227.7 0 1155.3 0 1083.2 0C1011 0 939 0 866.8 0C794.7 0 722.3 0 650 0C577.7 0 505.3 0 433.2 0C361 0 289 0 216.8 0C144.7 0 72.3 0 36.2 0L0 0Z" fill="#2F3C7E" stroke-linecap="round" stroke-linejoin="miter"></path></svg>